<svg id="logo" xmlns="http://www.w3.org/2000/svg" viewBox="0 0 1236.38 330.68"><defs><style>.cls-1{fill:#d0d0d0;}.cls-2{fill:#ee727a;}.cls-3{fill:#c4e791;}.cls-4{fill:#feca72;}.cls-5{fill:#84acfc;}.cls-6{fill:#c694e8;}.cls-7{fill:#8cddfd;}</style></defs><g id="brand"><path class="cls-1" d="M43.67,40.75H1.41V4h125V40.75H84.1V261.26H43.67Z" transform="translate(-0.95 -0.32)"/><path class="cls-1" d="M156.87,4h40.42V261.26H156.87Z" transform="translate(-0.95 -0.32)"/><path class="cls-1" d="M238.45,4h57.7l25.72,184.12h.74L348.34,4H406V261.26H367.81V66.48h-.73l-29.4,194.78H303.87L274.47,66.48h-.74V261.26H238.45Z" transform="translate(-0.95 -0.32)"/><path class="cls-1" d="M447.19,4H557.45V40.75H487.62v68h55.49v36.75H487.62v79h69.83v36.75H447.19Z" transform="translate(-0.95 -0.32)"/><path class="cls-1" d="M591.62,4h40.43V224.51h66.52v36.75h-107Z" transform="translate(-0.95 -0.32)"/><path class="cls-1" d="M729.07,4H769.5V261.26H729.07Z" transform="translate(-0.95 -0.32)"/><path class="cls-1" d="M810.65,4h50.72l39.32,154h.74V4h36V261.26H895.91L847.4,73.46h-.73v187.8h-36Z" transform="translate(-0.95 -0.32)"/><path class="cls-1" d="M978.6,4h110.25V40.75H1019v68h55.49v36.75H1019v79h69.82v36.75H978.6Z" transform="translate(-0.95 -0.32)"/><path class="cls-1" d="M1131.85,248.21q-15.07-16.72-15.07-48v-14.7H1155v17.64q0,25,21,25,10.29,0,15.62-6.06t5.33-19.66q0-16.17-7.35-28.49t-27.2-29.58q-25-22-34.91-39.88t-9.92-40.24q0-30.49,15.43-47.22T1177.79.32q29,0,43.92,16.73t14.88,48V75.66h-38.22V62.43q0-13.23-5.15-19.29t-15.07-6.07q-20.2,0-20.21,24.63a48.56,48.56,0,0,0,7.53,26.09q7.53,12.13,27.39,29.4,25.35,22,34.91,40.06t9.55,42.27q0,31.6-15.61,48.51t-45.39,16.9Q1146.91,264.93,1131.85,248.21Z" transform="translate(-0.95 -0.32)"/></g><g id="bar"><rect class="cls-2" y="288.21" width="188.24" height="42.47" rx="5"/><rect class="cls-3" x="209.56" y="288.21" width="188.24" height="42.47" rx="5"/><rect class="cls-4" x="419.13" y="288.21" width="188.24" height="42.47" rx="5"/><rect class="cls-5" x="628.69" y="288.21" width="188.24" height="42.47" rx="5"/><rect class="cls-6" x="838.25" y="288.21" width="188.24" height="42.47" rx="5"/><rect class="cls-7" x="1047.81" y="288.21" width="188.24" height="42.47" rx="5"/></g></svg>